<?xml version="1.0" encoding="UTF-8"?>
<!-- Generated by Pixelmator Pro 3.7 -->
<svg width="667" height="669" viewBox="0 0 667 669" xmlns="http://www.w3.org/2000/svg">
    <path id="Sun-copy" fill="#ffffff" fill-rule="evenodd" stroke="#ffffff" stroke-width="3" stroke-linecap="round" stroke-linejoin="round" d="M 636.496094 360.503906 L 570.185974 360.503906 C 556.100647 360.503906 544.682251 349.085327 544.682251 335 C 544.682251 320.914673 556.100647 309.496094 570.185974 309.496094 L 636.496094 309.496094 C 650.581421 309.496094 662 320.914673 662 335 C 662 349.085327 650.581421 360.503906 636.496094 360.503906 Z M 518.744629 185.317749 C 512.329712 191.896576 502.871948 194.51593 493.986359 192.174622 C 485.101166 189.833282 478.161896 182.893341 475.822083 174.007599 C 473.48172 165.121857 476.1026 155.664246 482.682129 149.250305 L 529.558228 102.361389 C 539.518188 92.395874 555.670837 92.391235 565.635986 102.351013 C 575.601624 112.310852 575.606323 128.463501 565.646362 138.428833 Z M 333 490.573608 C 247.079147 490.573608 177.426376 420.92099 177.426376 335 C 177.426376 249.07901 247.079147 179.426392 333 179.426392 C 418.920837 179.426392 488.573608 249.07901 488.573608 335 C 488.573608 420.92099 418.920837 490.573608 333 490.573608 Z M 333 123.317749 C 318.914673 123.317749 307.496094 111.899353 307.496094 97.814026 L 307.496094 31.503906 C 307.496094 17.418457 318.914673 6 333 6 C 347.085327 6 358.503906 17.418457 358.503906 31.503906 L 358.503906 97.814026 C 358.503906 111.899353 347.085327 123.317749 333 123.317749 Z M 147.255386 185.317749 L 100.353653 138.428833 C 90.393692 128.463501 90.398376 112.310852 100.363983 102.351013 C 110.329185 92.391235 126.481812 92.395874 136.441772 102.361389 L 183.317871 149.250305 C 189.897415 155.664246 192.51828 165.121857 190.177917 174.007599 C 187.838104 182.893341 180.898834 189.833282 172.013657 192.174622 C 163.128052 194.51593 153.670273 191.896576 147.255386 185.317749 Z M 121.317764 335 C 121.317764 349.085327 109.89933 360.503906 95.813995 360.503906 L 29.503904 360.503906 C 15.418574 360.503906 4 349.085327 4 335 C 4 320.914673 15.418574 309.496094 29.503904 309.496094 L 95.813995 309.496094 C 109.89933 309.496094 121.317764 320.914673 121.317764 335 Z M 147.255386 484.682251 C 153.670273 478.103394 163.128052 475.48407 172.013657 477.825378 C 180.898834 480.166718 187.838104 487.10675 190.177917 495.992432 C 192.51828 504.878143 189.897415 514.335815 183.317871 520.749756 L 136.441772 567.638611 C 126.481812 577.604004 110.329185 577.608704 100.363983 567.648926 C 90.398376 557.689148 90.393692 541.53656 100.353653 531.571167 Z M 333 546.68219 C 347.085327 546.68219 358.503906 558.100647 358.503906 572.186096 L 358.503906 638.496094 C 358.503906 652.581482 347.085327 664 333 664 C 318.914673 664 307.496094 652.581482 307.496094 638.496094 L 307.496094 572.186096 C 307.496094 558.100647 318.914673 546.68219 333 546.68219 Z M 518.744629 484.682251 L 565.646362 531.571167 C 575.606323 541.53656 575.601624 557.689148 565.635986 567.648926 C 555.670837 577.608704 539.518188 577.604004 529.558228 567.638611 L 482.682129 520.749756 C 476.1026 514.335815 473.48172 504.878143 475.822083 495.992432 C 478.161896 487.10675 485.101166 480.166718 493.986359 477.825378 C 502.871948 475.48407 512.329712 478.103394 518.744629 484.682251 Z"/>
</svg>
